<svg xmlns="http://www.w3.org/2000/svg" viewBox="0 0 1200 630" role="img" aria-labelledby="title desc">
  <title id="title">aiproxy social card</title>
  <desc id="desc">A social preview card for the aiproxy documentation site.</desc>
  <defs>
    <linearGradient id="bg" x1="100" y1="40" x2="1100" y2="590" gradientUnits="userSpaceOnUse">
      <stop offset="0" stop-color="#eff6ff" />
      <stop offset="1" stop-color="#dbeafe" />
    </linearGradient>
    <linearGradient id="panel" x1="120" y1="96" x2="420" y2="456" gradientUnits="userSpaceOnUse">
      <stop offset="0" stop-color="#60a5fa" />
      <stop offset="1" stop-color="#1d4ed8" />
    </linearGradient>
  </defs>

  <rect width="1200" height="630" fill="url(#bg)" />
  <rect x="72" y="72" width="1056" height="486" rx="36" fill="#ffffff" stroke="#bfdbfe" stroke-width="2" />

  <rect x="132" y="132" width="292" height="292" rx="56" fill="url(#panel)" />

  <rect x="216" y="186" width="124" height="92" rx="40" fill="#eff6ff" />
  <path d="M260 278h36l-18 30Z" fill="#eff6ff" />
  <circle cx="248" cy="232" r="8" fill="#2563eb" />
  <circle cx="278" cy="232" r="8" fill="#2563eb" />
  <circle cx="308" cy="232" r="8" fill="#2563eb" />

  <circle cx="174" cy="204" r="18" fill="#dbeafe" />
  <circle cx="174" cy="344" r="18" fill="#dbeafe" />
  <circle cx="382" cy="204" r="18" fill="#dbeafe" />
  <circle cx="382" cy="344" r="18" fill="#dbeafe" />

  <path d="M192 204h58" fill="none" stroke="#dbeafe" stroke-linecap="round" stroke-width="12" />
  <path d="M192 344h78l22-30" fill="none" stroke="#dbeafe" stroke-linecap="round" stroke-linejoin="round" stroke-width="12" />
  <path d="M364 204h-56" fill="none" stroke="#dbeafe" stroke-linecap="round" stroke-width="12" />
  <path d="M364 344h-78l-22-30" fill="none" stroke="#dbeafe" stroke-linecap="round" stroke-linejoin="round" stroke-width="12" />

  <path d="M232 192l14 12-14 12" fill="none" stroke="#93c5fd" stroke-linecap="round" stroke-linejoin="round" stroke-width="8" />
  <path d="M324 192l-14 12 14 12" fill="none" stroke="#93c5fd" stroke-linecap="round" stroke-linejoin="round" stroke-width="8" />

  <text x="484" y="220" fill="#2563eb" font-family="Inter, Arial, sans-serif" font-size="34" font-weight="800" letter-spacing="4">DOCUMENTATION</text>
  <text x="484" y="314" fill="#0f172a" font-family="Inter, Arial, sans-serif" font-size="82" font-weight="800">aiproxy</text>
  <text x="484" y="380" fill="#334155" font-family="Inter, Arial, sans-serif" font-size="34" font-weight="500">OpenAI-compatible proxy for multiple AI providers</text>

  <g fill="#1d4ed8" font-family="Inter, Arial, sans-serif" font-size="28" font-weight="700">
    <text x="484" y="468">chat completions</text>
    <text x="764" y="468">responses</text>
    <text x="484" y="514">provider translation</text>
    <text x="792" y="514">alias routing</text>
    <text x="484" y="560">streaming SSE</text>
    <text x="740" y="560">usage metrics</text>
  </g>
</svg>
